HIERARCHY
ROOT Hips
{
    OFFSET   0.000000   0.000000   0.000000
    CHANNELS 6 Xposition Yposition Zposition Zrotation Xrotation Yrotation
    JOINT Chest
    {
        OFFSET   0.000000   8.007230   0.000000
        CHANNELS 3 Zrotation Xrotation Yrotation
        JOINT Chest2
        {
            OFFSET   0.000000  22.077100   0.000000
            CHANNELS 3 Zrotation Xrotation Yrotation
            JOINT Neck
            {
                OFFSET   0.000000  23.254800   0.000000
                CHANNELS 3 Zrotation Xrotation Yrotation
                JOINT Head
                {
                    OFFSET   0.000010  14.370000   1.956600
                    CHANNELS 3 Zrotation Xrotation Yrotation
                    End Site
                    {
                        OFFSET   0.000000  19.566000   0.000000
                    }
                }
            }
            JOINT LeftCollar
            {
                OFFSET   3.911900  19.017000  -0.467062
                CHANNELS 3 Zrotation Xrotation Yrotation
                JOINT LeftShoulder
                {
                    OFFSET  10.383700   0.000000   0.000000
                    CHANNELS 3 Zrotation Xrotation Yrotation
                    JOINT LeftElbow
                    {
                        OFFSET  26.662100   0.001193   0.000835
                        CHANNELS 3 Zrotation Xrotation Yrotation
                        JOINT LeftWrist
                        {
                            OFFSET  28.869000  -0.000058  -0.000075
                            CHANNELS 3 Zrotation Xrotation Yrotation
                            JOINT LeftFinger0
                            {
                                OFFSET   2.044660  -2.323460   3.252850
                                CHANNELS 3 Zrotation Xrotation Yrotation
                                JOINT LeftFinger01
                                {
                                    OFFSET   3.088130   0.000000   0.000000
                                    CHANNELS 3 Zrotation Xrotation Yrotation
                                    JOINT LeftFinger02
                                    {
                                        OFFSET   2.639450   0.000000   0.000000
                                        CHANNELS 3 Zrotation Xrotation Yrotation
                                        End Site
                                        {
                                            OFFSET   2.582190   0.000000   0.000000
                                        }
                                    }
                                }
                            }
                            JOINT LeftFinger1
                            {
                                OFFSET   8.364480   0.000000   3.252850
                                CHANNELS 3 Zrotation Xrotation Yrotation
                                JOINT LeftFinger11
                                {
                                    OFFSET   4.646920   0.000000   0.000000
                                    CHANNELS 3 Zrotation Xrotation Yrotation
                                    JOINT LeftFinger12
                                    {
                                        OFFSET   2.323460   0.000000   0.000000
                                        CHANNELS 3 Zrotation Xrotation Yrotation
                                        End Site
                                        {
                                            OFFSET   2.273050   0.000000   0.000000
                                        }
                                    }
                                }
                            }
                            JOINT LeftFinger2
                            {
                                OFFSET   8.364490   0.000016   1.078090
                                CHANNELS 3 Zrotation Xrotation Yrotation
                                JOINT LeftFinger21
                                {
                                    OFFSET   5.111620   0.000000   0.000000
                                    CHANNELS 3 Zrotation Xrotation Yrotation
                                    JOINT LeftFinger22
                                    {
                                        OFFSET   2.788150   0.000012   0.000000
                                        CHANNELS 3 Zrotation Xrotation Yrotation
                                        End Site
                                        {
                                            OFFSET   2.727660   0.000000   0.000000
                                        }
                                    }
                                }
                            }
                            JOINT LeftFinger3
                            {
                                OFFSET   7.899780   0.000014  -1.078090
                                CHANNELS 3 Zrotation Xrotation Yrotation
                                JOINT LeftFinger31
                                {
                                    OFFSET   4.646930   0.000000   0.000000
                                    CHANNELS 3 Zrotation Xrotation Yrotation
                                    JOINT LeftFinger32
                                    {
                                        OFFSET   2.323470   0.000000   0.000000
                                        CHANNELS 3 Zrotation Xrotation Yrotation
                                        End Site
                                        {
                                            OFFSET   2.273050   0.000000   0.000000
                                        }
                                    }
                                }
                            }
                            JOINT LeftFinger4
                            {
                                OFFSET   7.435090   0.000000  -3.252850
                                CHANNELS 3 Zrotation Xrotation Yrotation
                                JOINT LeftFinger41
                                {
                                    OFFSET   3.717550   0.000000   0.000000
                                    CHANNELS 3 Zrotation Xrotation Yrotation
                                    JOINT LeftFinger42
                                    {
                                        OFFSET   1.858770   0.000000   0.000000
                                        CHANNELS 3 Zrotation Xrotation Yrotation
                                        End Site
                                        {
                                            OFFSET   1.818440   0.000000   0.000000
                                        }
                                    }
                                }
                            }
                        }
                    }
                }
            }
            JOINT RightCollar
            {
                OFFSET  -3.911900  19.017000  -0.467063
                CHANNELS 3 Zrotation Xrotation Yrotation
                JOINT RightShoulder
                {
                    OFFSET -10.383700   0.000023   0.000000
                    CHANNELS 3 Zrotation Xrotation Yrotation
                    JOINT RightElbow
                    {
                        OFFSET -26.662100   0.001246   0.001011
                        CHANNELS 3 Zrotation Xrotation Yrotation
                        JOINT RightWrist
                        {
                            OFFSET -28.869000  -0.000026  -0.000078
                            CHANNELS 3 Zrotation Xrotation Yrotation
                            JOINT RightFinger0
                            {
                                OFFSET  -2.044660  -2.323490   3.252850
                                CHANNELS 3 Zrotation Xrotation Yrotation
                                JOINT RightFinger01
                                {
                                    OFFSET  -3.088130   0.000000   0.000000
                                    CHANNELS 3 Zrotation Xrotation Yrotation
                                    JOINT RightFinger02
                                    {
                                        OFFSET  -2.639460   0.000000   0.000000
                                        CHANNELS 3 Zrotation Xrotation Yrotation
                                        End Site
                                        {
                                            OFFSET  -2.582190   0.000000   0.000000
                                        }
                                    }
                                }
                            }
                            JOINT RightFinger1
                            {
                                OFFSET  -8.364480   0.000000   3.252850
                                CHANNELS 3 Zrotation Xrotation Yrotation
                                JOINT RightFinger11
                                {
                                    OFFSET  -4.646920   0.000000   0.000000
                                    CHANNELS 3 Zrotation Xrotation Yrotation
                                    JOINT RightFinger12
                                    {
                                        OFFSET  -2.323470   0.000000   0.000000
                                        CHANNELS 3 Zrotation Xrotation Yrotation
                                        End Site
                                        {
                                            OFFSET  -2.273050   0.000000   0.000000
                                        }
                                    }
                                }
                            }
                            JOINT RightFinger2
                            {
                                OFFSET  -8.364480   0.000000   1.078090
                                CHANNELS 3 Zrotation Xrotation Yrotation
                                JOINT RightFinger21
                                {
                                    OFFSET  -5.111620   0.000000   0.000000
                                    CHANNELS 3 Zrotation Xrotation Yrotation
                                    JOINT RightFinger22
                                    {
                                        OFFSET  -2.788160   0.000000   0.000000
                                        CHANNELS 3 Zrotation Xrotation Yrotation
                                        End Site
                                        {
                                            OFFSET  -2.727660   0.000000   0.000000
                                        }
                                    }
                                }
                            }
                            JOINT RightFinger3
                            {
                                OFFSET  -7.899780   0.000000  -1.078090
                                CHANNELS 3 Zrotation Xrotation Yrotation
                                JOINT RightFinger31
                                {
                                    OFFSET  -4.646930   0.000000   0.000000
                                    CHANNELS 3 Zrotation Xrotation Yrotation
                                    JOINT RightFinger32
                                    {
                                        OFFSET  -2.323470   0.000000   0.000000
                                        CHANNELS 3 Zrotation Xrotation Yrotation
                                        End Site
                                        {
                                            OFFSET  -2.273050   0.000000   0.000000
                                        }
                                    }
                                }
                            }
                            JOINT RightFinger4
                            {
                                OFFSET  -7.435090   0.000000  -3.252850
                                CHANNELS 3 Zrotation Xrotation Yrotation
                                JOINT RightFinger41
                                {
                                    OFFSET  -3.717550   0.000000   0.000000
                                    CHANNELS 3 Zrotation Xrotation Yrotation
                                    JOINT RightFinger42
                                    {
                                        OFFSET  -1.858760   0.000000   0.000000
                                        CHANNELS 3 Zrotation Xrotation Yrotation
                                        End Site
                                        {
                                            OFFSET  -1.818440   0.000000   0.000000
                                        }
                                    }
                                }
                            }
                        }
                    }
                }
            }
        }
    }
    JOINT LeftHip
    {
        OFFSET   9.783010   0.000000   0.000000
        CHANNELS 3 Zrotation Xrotation Yrotation
        JOINT LeftKnee
        {
            OFFSET   0.000073 -41.789100   0.001749
            CHANNELS 3 Zrotation Xrotation Yrotation
            JOINT LeftAnkle
            {
                OFFSET   0.000111 -41.133200  -0.000179
                CHANNELS 3 Zrotation Xrotation Yrotation
                JOINT LeftToe
                {
                    OFFSET   0.000000  -6.358960  14.674500
                    CHANNELS 3 Zrotation Xrotation Yrotation
                    End Site
                    {
                        OFFSET   0.000000   0.000000   3.913200
                    }
                }
            }
        }
    }
    JOINT RightHip
    {
        OFFSET  -9.783010   0.000000   0.000000
        CHANNELS 3 Zrotation Xrotation Yrotation
        JOINT RightKnee
        {
            OFFSET   0.000424 -41.789200   0.005205
            CHANNELS 3 Zrotation Xrotation Yrotation
            JOINT RightAnkle
            {
                OFFSET   0.000000 -41.133200  -0.000155
                CHANNELS 3 Zrotation Xrotation Yrotation
                JOINT RightToe
                {
                    OFFSET   0.000000  -6.358960  14.674500
                    CHANNELS 3 Zrotation Xrotation Yrotation
                    End Site
                    {
                        OFFSET   0.000000   0.000000   3.913200
                    }
                }
            }
        }
    }
}
MOTION
Frames: 4
Frame Time:   0.016667
 -0.420511  89.541400   0.184070  -2.133270  -5.007190  -1.379300   0.306020   2.421530  -0.447178   0.631816   4.840560  -0.908531   0.775572   1.152960  -0.020685   1.275760   2.336690  -0.080311  -0.788245  -0.059952   1.474010 -78.065500  11.852900   3.262730  -1.345340  -2.515490 -14.958500  12.881400  -7.790140   1.703100  43.005900  35.544800 -61.536200 -29.140400   0.000953   0.000598  -9.570200   0.004498  -0.001035 -28.300800   5.220210  -9.590660 -23.513700  -0.004711  -0.000403 -16.459600   0.002014  -0.001931 -28.709100   1.322950  -2.415050 -39.608400  -0.002962  -0.003791 -26.387800   0.001734  -0.003870 -28.658900   1.320900  -2.416180 -38.611500   0.002931   0.005236 -25.715200  -0.001155   0.003945 -34.822700   0.282730  -0.406644 -52.235500  -0.002286  -0.004531 -34.788900  -0.002991  -0.003462   5.004400   0.395507   1.999880  74.929800   5.257260  -6.523090   1.049890  -5.967640   8.138860  -9.878440  -3.069290   4.942910 -42.478200  29.693000  55.616200  24.344200   0.002566  -0.001066   7.172110   0.003787   0.002673  24.127900   5.599900  12.290400  20.234800   0.000356  -0.006244  14.164300  -0.000255  -0.004316  28.256600   4.994350   9.198850  38.380100  -0.000453   0.003374  25.570100   0.006210   0.006592  28.111200   4.439860   8.248140  35.417100   0.003654   0.005151  23.587800   0.000486   0.002332  36.166400  -0.034201  -0.054134  54.225100   0.006769   0.005146  36.130200   0.005655  -0.001608   1.718110   8.015810   2.316580   1.101200  -0.002484   0.413275  -0.689534  -3.502600   1.853680  -0.000000   0.000000   0.000000   2.340700   6.656660   0.461071  -0.250573   1.546450  -4.575340  -1.110960  -4.210060  -0.780920   0.000000   0.000000  -0.000000
 -0.414214  89.541500   0.192366  -2.133110  -5.006950  -1.379300   0.307229   2.430500  -0.445904   0.634262   4.858490  -0.906086   0.789904   1.141400  -0.020646   1.299330   2.313250  -0.089316  -0.794286  -0.072638   1.486500 -78.052700  11.875600   3.249310  -1.348380  -2.541870 -14.967400  12.867500  -7.781330   1.688630  43.014500  35.541000 -61.540200 -29.118700   0.000964   0.000610  -9.559360   0.004484  -0.001053 -28.292100   5.231740  -9.614810 -23.508300  -0.004710  -0.000403 -16.455800   0.002013  -0.001929 -28.708200   1.332280  -2.432060 -39.612400  -0.002962  -0.003789 -26.387800   0.001732  -0.003870 -28.658200   1.330180  -2.433220 -38.602000   0.002931   0.005236 -25.708900  -0.001156   0.003947 -34.817200   0.282944  -0.406964 -52.227200  -0.002288  -0.004530 -34.783400  -0.002994  -0.003462   5.010690   0.368805   2.015960  74.932000   5.281810  -6.523180   1.055920  -5.997230   8.119790  -9.870980  -3.054610   4.942840 -42.476500  29.674900  55.633600  24.328200   0.002566  -0.001067   7.164150   0.003790   0.002671  24.126700   5.608550  12.305400  20.235000   0.000356  -0.006242  14.164400  -0.000248  -0.004315  28.255400   4.998070   9.205470  38.378900  -0.000455   0.003370  25.566000   0.006218   0.006598  28.111100   4.439880   8.248160  35.424800   0.003654   0.005148  23.592900   0.000466   0.002319  36.166700  -0.034248  -0.054309  54.230400   0.006755   0.005133  36.130500   0.005642  -0.001605   1.713060   8.014000   2.322130   1.101340  -0.001892   0.406956  -0.689515  -3.502450   1.853680   0.000000   0.000000  -0.000000   2.322070   6.656910   0.445707  -0.228144   1.546400  -4.575290  -1.114390  -4.211470  -0.763582   0.000000   0.000000   0.000000
 -0.403572  89.541700   0.206567  -2.132880  -5.006710  -1.379300   0.310287   2.445660  -0.443391   0.640411   4.888810  -0.901281   0.815818   1.125630  -0.020583   1.341920   2.281310  -0.108320  -0.805698  -0.095860   1.510170 -78.033900  11.917200   3.224670  -1.351390  -2.583810 -14.982100  12.852600  -7.768710   1.667300  43.034600  35.536600 -61.543400 -29.085700   0.000975   0.000622  -9.542870   0.004466  -0.001074 -28.279000   5.249150  -9.651330 -23.500200  -0.004710  -0.000402 -16.450100   0.002013  -0.001927 -28.706900   1.346060  -2.457200 -39.621400  -0.002961  -0.003785 -26.387800   0.001727  -0.003870 -28.657000   1.343890  -2.458390 -38.587500   0.002932   0.005239 -25.699300  -0.001158   0.003950 -34.811100   0.283158  -0.407284 -52.218100  -0.002293  -0.004527 -34.777300  -0.003003  -0.003461   5.022840   0.319685   2.046900  74.932500   5.323850  -6.523450   1.064620  -6.052700   8.091720  -9.856900  -3.022280   4.942690 -42.468400  29.652000  55.658500  24.312300   0.002568  -0.001073   7.156190   0.003794   0.002665  24.124700   5.617030  12.328500  20.235200   0.000353  -0.006234  14.164600  -0.000238  -0.004311  28.253400   5.003660   9.216450  38.370700  -0.000462   0.003361  25.554900   0.006236   0.006614  28.111100   4.439950   8.248200  35.432500   0.003653   0.005138  23.598000   0.000417   0.002286  36.167000  -0.034327  -0.054484  54.237700   0.006715   0.005099  36.130800   0.005608  -0.001596   1.704790   8.011210   2.331150   1.101560   0.002251   0.397580  -0.689353  -3.502300   1.853680  -0.000000   0.000000   0.000000   2.293770   6.658560   0.418605  -0.194398   1.546090  -4.575240  -1.119180  -4.214920  -0.735606   0.000000   0.000000  -0.000000
 -0.394889  89.541700   0.218523  -2.132540  -5.007320  -1.376330   0.315067   2.457240  -0.439714   0.649923   4.911950  -0.894277   0.840089   1.120330  -0.020525   1.381820   2.270760  -0.134160  -0.817541  -0.117657   1.532100 -78.024500  11.954900   3.199980  -1.348940  -2.609580 -14.992100  12.860000  -7.762290   1.657220  43.052400  35.533700 -61.521600 -29.062200   0.000973   0.000622  -9.531100   0.004460  -0.001075 -28.270200   5.259250  -9.674730 -23.494400  -0.004709  -0.000401 -16.446000   0.002017  -0.001929 -28.706100   1.353380  -2.470540 -39.629500  -0.002959  -0.003777 -26.391500   0.001722  -0.003869 -28.656500   1.351160  -2.471760 -38.577200   0.002935   0.005245 -25.692400  -0.001161   0.003954 -34.810400   0.283105  -0.407204 -52.217100  -0.002299  -0.004522 -34.776600  -0.003019  -0.003460   5.036070   0.269853   2.078420  74.922200   5.356450  -6.525550   1.068640  -6.113770   8.081400  -9.836740  -2.976310   4.946940 -42.470300  29.657000  55.674100  24.313600   0.002570  -0.001090   7.156820   0.003788   0.002656  24.106200   5.616000  12.346000  20.220800   0.000346  -0.006219  14.154600  -0.000236  -0.004302  28.251800   5.007380   9.227250  38.343000  -0.000473   0.003348  25.535300   0.006261   0.006639  28.110900   4.440040   8.248250  35.426400   0.003650   0.005125  23.594000   0.000348   0.002238  36.165700  -0.034406  -0.054440  54.240600   0.006654   0.005046  36.129500   0.005553  -0.001582   1.697030   8.009100   2.339190   1.101700   0.024019   0.391670  -0.687751  -3.512550   1.850630  -0.000000   0.000000  -0.000000   2.276250   6.666490   0.391050  -0.171687   1.543520  -4.575290  -1.121310  -4.219750  -0.711514  -0.000000   0.000000   0.000000
